<svg width="52" height="65" viewBox="0 0 52 65" fill="none" xmlns="http://www.w3.org/2000/svg">
<g clip-path="url(#clip0_1_32)">
<path d="M10.9295 39.2395C7.54796 45.342 4.2538 51.2916 0.959641 57.2412C0.947163 57.254 0.959641 57.2794 0.972118 57.3431C2.36964 57.254 3.76717 57.1775 5.16469 57.0756C6.57469 56.9864 7.98469 56.8972 9.38221 56.7698C9.78151 56.7316 9.86885 56.9609 10.0061 57.2412C11.1541 59.6109 12.302 61.9805 13.45 64.3502C13.5373 64.5413 13.6372 64.7197 13.7744 64.9745C17.0436 59.1013 20.2754 53.2918 23.5321 47.4568C25.4288 48.3741 27.288 48.3359 29.1472 47.2912C32.4289 53.1771 35.6856 59.0376 39.0047 64.9872C39.2293 64.5286 39.404 64.1846 39.5787 63.8279C40.6393 61.6238 41.7124 59.4325 42.7605 57.2157C42.9352 56.8463 43.1224 56.7444 43.5217 56.7826C46.2668 56.9864 49.0244 57.152 51.9193 57.3431C48.5128 51.2152 45.1563 45.1891 41.7623 39.0866C42.1616 38.9847 42.4736 38.8955 42.798 38.8318C46.167 38.1566 48.2134 34.7167 47.1028 31.4298C46.6536 30.0921 46.8907 29.1748 47.9513 28.2575C50.4719 26.0535 50.422 21.9511 47.9264 19.7216C46.7285 18.6515 46.6037 18.1801 47.1028 16.6767C48.2259 13.3771 46.1795 9.80983 42.8354 9.19831C41.4504 8.94351 41.0012 8.48486 40.7516 7.08345C40.1277 3.64363 36.6713 1.56699 33.4271 2.68812C31.9422 3.19772 31.493 3.05758 30.4324 1.86001C29.3718 0.675183 28.1115 0.0509184 26.4894 -4.19696e-05C24.5179 -0.0637425 22.9831 0.611483 21.7478 2.15303C21.0241 3.05758 20.1381 3.0958 19.115 2.72634C16.4697 1.75809 13.5997 2.87922 12.2896 5.37628C12.015 5.91136 11.8279 6.51015 11.7031 7.10893C11.4036 8.51034 10.9794 8.95625 9.58186 9.21105C6.26274 9.82258 4.21637 13.3771 5.28947 16.6513C5.80106 18.2438 5.70124 18.6642 4.4784 19.7471C1.98283 21.9639 1.95787 26.0662 4.4784 28.283C5.50159 29.1875 5.7761 30.0921 5.31442 31.4043C4.17894 34.6785 6.22531 38.1693 9.56938 38.8445C10.0061 38.9337 10.4304 39.0866 10.9295 39.2395ZM35.1366 6.17891C36.2097 6.19165 36.9084 6.86687 37.133 8.02622C37.6446 10.6762 39.1794 12.2942 41.7748 12.8547C43.4593 13.2242 44.0083 14.1797 43.4718 15.8614C42.6607 18.3839 43.2222 20.5243 45.1563 22.2824C46.4415 23.4672 46.4415 24.5629 45.1438 25.7477C43.2098 27.5313 42.6607 29.6844 43.4593 32.2069C43.9959 33.8631 43.4718 34.8187 41.7997 35.1754C39.1794 35.7487 37.6197 37.3539 37.1081 40.0421C36.8211 41.5582 35.7979 42.1442 34.3505 41.6983C33.7016 41.4945 33.0278 41.3034 32.354 41.2779C30.5697 41.2142 29.1097 41.9531 27.9119 43.3163C26.7015 44.705 25.7033 44.6922 24.468 43.3418C24.0312 42.8704 23.5446 42.4117 23.0081 42.0805C21.4109 41.0868 19.7389 41.0613 17.992 41.6983C16.6443 42.1952 15.5962 41.5454 15.3092 40.1185C15.2219 39.7236 15.1595 39.3286 15.0222 38.9464C14.2236 36.7679 12.6514 35.5576 10.4428 35.1372C9.03283 34.8696 8.47132 33.7994 8.88309 32.398C9.08274 31.7355 9.28239 31.0476 9.30734 30.3596C9.36973 28.5887 8.72088 27.0981 7.43566 25.9006C7.28593 25.7604 7.12372 25.6203 6.97398 25.4802C6.10053 24.6266 6.08805 23.4163 6.98646 22.5754C7.78505 21.8365 8.49628 21.0721 8.90805 20.0401C9.48204 18.575 9.41965 17.1227 8.89558 15.6448C8.42142 14.2689 9.05779 13.2114 10.4553 12.9057C10.7797 12.8292 11.1166 12.791 11.4286 12.6764C13.4625 11.9502 14.7602 10.536 15.2219 8.35746C15.2593 8.19184 15.2967 8.02622 15.3217 7.8606C15.6087 6.54837 16.6443 5.89862 17.8921 6.33179C18.9153 6.67577 19.926 6.90509 20.9991 6.72673C22.3842 6.49741 23.5446 5.84766 24.443 4.75202C24.5179 4.65009 24.6052 4.56091 24.6926 4.47173C25.6159 3.47801 26.7889 3.42704 27.6623 4.47173C29.534 6.68851 31.78 7.33826 34.4752 6.33179C34.7373 6.24261 34.9868 6.21713 35.1366 6.17891ZM38.7926 56.8845C36.5715 52.9096 34.4128 49.0239 32.2542 45.1509C32.2542 45.0999 32.2666 45.0362 32.2666 44.9853C35.1865 46.2465 37.732 45.8388 39.8158 43.3036C41.6375 46.5778 43.4219 49.7883 45.2686 53.1134C43.921 53.0243 42.7106 52.9606 41.5003 52.8459C40.9762 52.7949 40.6892 52.8969 40.4521 53.4319C39.9655 54.5531 39.3915 55.6615 38.7926 56.8845ZM20.6248 45.0235C18.3663 49.0748 16.2201 52.9351 14.024 56.8845C13.4375 55.6869 12.8635 54.6295 12.4143 53.5211C12.1523 52.8841 11.7904 52.7822 11.179 52.8459C10.0186 52.9733 8.83319 53.0115 7.53549 53.1007C9.34478 49.852 11.0792 46.7306 12.8386 43.5711C14.7976 45.635 16.9937 46.1956 19.5517 45.1891C19.8137 45.0872 20.1381 45.0999 20.6248 45.0235Z" fill="#A6BBC7"/>
<path d="M26.3022 38.0292C33.5893 37.889 39.3791 31.8757 39.2668 24.5756C39.142 17.0972 33.215 11.1985 25.9778 11.3514C18.8405 11.5043 13.0757 17.5558 13.1506 24.754C13.2379 32.1305 19.0526 38.0164 26.3022 38.0292ZM16.8939 24.7158C16.8565 19.5051 21.0366 15.1989 26.1525 15.1607C31.3184 15.1225 35.4984 19.3649 35.5359 24.6521C35.5733 29.8755 31.4431 34.1435 26.2773 34.2199C21.1863 34.2963 16.9314 29.9902 16.8939 24.7158Z" fill="#A6BBC7"/>
</g>
<defs>
<clipPath id="clip0_1_32">
<rect width="50.9721" height="65" fill="white" transform="matrix(-1 0 0 1 51.9443 0)"/>
</clipPath>
</defs>
</svg>
