<svg width="62" height="71" viewBox="0 0 62 71" fill="none" xmlns="http://www.w3.org/2000/svg">
<g clip-path="url(#clip0_1_11)">
<path d="M30.049 70.5C28.8722 70.2129 27.7365 69.8711 26.806 69.0371C24.9724 67.3828 24.2882 65.3731 24.7808 62.9531C24.8219 62.7617 24.8629 62.5566 24.9177 62.3106C23.5493 62.3106 22.2357 62.3106 20.8674 62.3106C20.5526 60.7383 20.2242 59.207 19.9369 57.6621C17.9117 46.9981 15.7087 36.375 12.9036 25.8887C12.7667 25.3691 12.5478 25.2324 12.0278 25.2324C8.29221 25.2598 4.54293 25.2461 0.807327 25.2461C0.561024 25.2461 0.314721 25.2461 0 25.2461C0 23.8926 0 22.5664 0 21.1855C5.26815 21.1855 10.55 21.1855 15.9276 21.1855C16.2423 22.457 16.5844 23.7695 16.9128 25.082C17.898 29.0059 18.8969 32.9297 19.8548 36.8672C19.9916 37.4277 20.1969 37.5781 20.7579 37.5645C34.1814 37.5508 47.6186 37.5508 61.0422 37.5508C61.3295 37.5508 61.6305 37.5508 62 37.5508C60.358 45.8359 58.716 54.0391 57.0876 62.2969C55.7329 62.2969 54.4193 62.2969 53.051 62.2969C53.1468 62.8574 53.2699 63.3633 53.2973 63.8692C53.5025 67.1777 51.3679 69.8574 48.0839 70.418C48.0018 70.4316 47.9197 70.4863 47.8376 70.5137C47.386 70.5137 46.9208 70.5137 46.4692 70.5137C46.3597 70.4727 46.264 70.418 46.1545 70.4043C43.7599 69.9258 42.1589 68.5586 41.3516 66.2617C40.9 64.9766 40.9684 63.6777 41.3379 62.3652C39.7369 62.3652 38.177 62.3652 36.6034 62.3652C36.6308 62.5293 36.6444 62.6387 36.6718 62.7481C37.2876 65.3184 36.576 67.4512 34.5646 69.1602C33.6478 69.9395 32.5531 70.2539 31.4173 70.5137C30.9521 70.5 30.5006 70.5 30.049 70.5ZM20.9358 41.6797C22.0305 47.2031 23.1251 52.6719 24.2061 58.168C34.0719 58.168 43.8693 58.168 53.7078 58.168C54.8025 52.6719 55.8971 47.1895 56.9918 41.6797C44.964 41.6797 32.9909 41.6797 20.9358 41.6797ZM32.7857 64.3477C32.7857 63.2266 31.8826 62.3106 30.7605 62.2969C29.6522 62.2832 28.708 63.1992 28.6943 64.3067C28.667 65.4277 29.6385 66.3984 30.7605 66.3848C31.8826 66.3848 32.7857 65.4688 32.7857 64.3477ZM49.2196 64.3203C49.2059 63.1992 48.2891 62.2969 47.1671 62.3106C46.0587 62.3242 45.1282 63.2539 45.1282 64.3477C45.1282 65.4688 46.0998 66.4258 47.2355 66.3984C48.3439 66.3711 49.2333 65.4414 49.2196 64.3203Z" fill="#A6BBC7"/>
<path d="M42.7747 0.5C47.3723 5.10742 51.9837 9.71484 56.5813 14.3223C56.7866 14.5273 57.0466 14.6914 57.2108 14.8145C53.2699 18.752 49.4249 22.5938 45.5661 26.4492C43.7599 24.6309 41.8579 22.7168 39.9696 20.8027C36.3571 24.3984 32.8541 27.8984 29.3785 31.3574C28.3659 30.3457 27.4218 29.4023 26.4639 28.4316C29.9122 24.9863 33.4288 21.4863 36.9729 17.9453C34.9888 15.9629 33.0867 14.0625 31.1437 12.1211C31.3489 11.9023 31.5131 11.7246 31.691 11.5469C35.194 8.04688 38.6833 4.56055 42.1726 1.06055C42.3505 0.882812 42.4873 0.677734 42.6378 0.5C42.6789 0.5 42.7199 0.5 42.7747 0.5ZM51.2584 15.1016C48.3712 12.2168 45.4977 9.3457 42.7063 6.55664C40.8863 8.375 38.9843 10.2754 37.1644 12.0938C39.9969 14.9238 42.8705 17.7949 45.7303 20.6523C47.5502 18.8066 49.4522 16.9062 51.2584 15.1016Z" fill="#A6BBC7"/>
<path d="M45.1282 33.3945C45.1282 32.041 45.1282 30.7422 45.1282 29.3887C49.2059 29.3887 53.2562 29.3887 57.375 29.3887C57.375 30.6875 57.375 32.0137 57.375 33.3945C53.3247 33.3945 49.2607 33.3945 45.1282 33.3945Z" fill="#A6BBC7"/>
<path d="M28.7354 45.7812C30.0901 45.7812 31.4037 45.7812 32.7447 45.7812C32.7447 48.543 32.7447 51.291 32.7447 54.0527C31.4037 54.0527 30.0901 54.0527 28.7354 54.0527C28.7354 51.3184 28.7354 48.584 28.7354 45.7812Z" fill="#A6BBC7"/>
<path d="M40.9684 54.0527C39.6001 54.0527 38.2865 54.0527 36.9455 54.0527C36.9455 51.291 36.9455 48.5703 36.9455 45.8086C38.2728 45.8086 39.6001 45.8086 40.9684 45.8086C40.9684 48.5293 40.9684 51.2637 40.9684 54.0527Z" fill="#A6BBC7"/>
<path d="M49.1922 45.7949C49.1922 48.5703 49.1922 51.291 49.1922 54.0527C47.8512 54.0527 46.5376 54.0527 45.1693 54.0527C45.1693 51.3184 45.1693 48.584 45.1693 45.7949C46.4829 45.7949 47.8102 45.7949 49.1922 45.7949Z" fill="#A6BBC7"/>
</g>
<defs>
<clipPath id="clip0_1_11">
<rect width="62" height="70" fill="white" transform="translate(0 0.5)"/>
</clipPath>
</defs>
</svg>
