<svg width="49" height="65" viewBox="0 0 49 65" fill="none" xmlns="http://www.w3.org/2000/svg">
<g clip-path="url(#clip0_1_23)">
<path d="M30.1851 0C30.1851 8.9502 30.1851 17.8877 30.1851 26.9014C26.3994 26.9014 22.6641 26.9014 18.9035 26.9014C18.9035 28.1836 18.9035 29.4023 18.9035 30.7227C19.1173 30.7227 19.3437 30.7227 19.5575 30.7227C22.5509 30.7227 25.5568 30.71 28.5501 30.7354C28.8645 30.7354 29.2418 30.9004 29.4682 31.1162C31.7447 33.376 33.9959 35.6484 36.2346 37.9336C36.5239 38.2256 36.8132 38.3398 37.2157 38.3398C40.9007 38.3271 44.5984 38.3271 48.2834 38.3271C48.5098 38.3271 48.7362 38.3271 49.0129 38.3271C49.0129 44.6748 49.0129 50.9844 49.0129 57.3701C48.7991 57.3701 48.5727 57.3701 48.3463 57.3701C44.6361 57.3701 40.9259 57.3701 37.2157 57.3574C36.8132 57.3574 36.5239 57.459 36.2221 57.7637C33.9959 60.0361 31.7572 62.2832 29.5185 64.543C29.3928 64.6699 29.2921 64.835 29.1789 64.9746C21.7585 64.9746 14.3381 64.9746 6.91766 64.9746C6.81704 64.9365 6.729 64.8857 6.62839 64.873C4.18845 64.4668 2.31448 62.499 1.96232 60.0488C1.77367 58.7793 2.05036 57.624 2.59117 56.4814C2.4654 56.3672 2.35221 56.2783 2.23902 56.1895C-0.238654 54.2725 -0.729157 50.8447 1.13224 48.3057C1.40893 47.9248 1.33347 47.709 1.09451 47.3789C-0.351847 45.4238 -0.364424 42.6816 1.08193 40.752C1.3712 40.3584 1.3712 40.1172 1.08193 39.7236C0.0506175 38.3018 -0.251231 36.6895 0.226695 34.9883C0.981315 32.2969 3.08167 30.748 5.92408 30.7354C8.7539 30.7227 11.5837 30.7354 14.4136 30.7354C14.6399 30.7354 14.8537 30.7354 15.0676 30.7354C15.0676 29.4277 15.0676 28.209 15.0676 26.9141C11.2945 26.9141 7.55909 26.9141 3.78599 26.9141C3.78599 17.9004 3.78599 8.9502 3.78599 0.0126953C12.5773 0 21.3812 0 30.1851 0ZM30.16 53.5615C28.7765 53.5615 27.4685 53.5869 26.1479 53.5488C24.777 53.5107 23.4816 53.1426 22.3622 52.3428C21.595 51.7842 20.9159 51.0986 20.1612 50.4512C19.1048 51.6191 17.8093 52.5586 16.2498 53.0283C15.3442 53.2949 14.5016 53.5234 14.2501 54.6025C14.2123 54.7549 14.074 54.8945 13.9608 55.0088C13.6338 55.3262 13.7092 55.5801 13.9734 55.9355C15.0047 57.3447 15.2939 58.9189 14.9166 60.6201C14.8789 60.7852 14.8537 60.9629 14.8286 61.1533C14.9795 61.166 15.0676 61.1787 15.143 61.1787C19.1299 61.1787 23.1043 61.1914 27.0912 61.166C27.3553 61.166 27.6823 60.9883 27.8835 60.7852C30.1474 58.5254 32.3987 56.2529 34.6499 53.9678C34.9392 53.6758 35.2159 53.5488 35.631 53.5488C38.6117 53.5615 41.5799 53.5615 44.5606 53.5615C44.787 53.5615 45.0134 53.5615 45.2398 53.5615C45.2398 49.7148 45.2398 45.9443 45.2398 42.1357C44.9757 42.1357 44.7493 42.1357 44.5103 42.1357C41.6176 42.1357 38.7249 42.123 35.8322 42.1484C35.2536 42.1484 34.8638 41.9707 34.4739 41.5645C32.298 39.3301 30.1096 37.1211 27.8961 34.9248C27.6697 34.709 27.2924 34.5312 26.9906 34.5312C23.2175 34.5059 19.4444 34.5186 15.6713 34.5186C15.4952 34.5186 15.3065 34.5439 15.143 34.5566C15.143 39.5205 15.143 44.4336 15.143 49.3975C16.3378 48.9404 17.2308 48.2168 17.91 47.2139C18.6017 46.1855 18.891 45.0303 18.8784 43.7988C18.8658 42.6182 18.8784 41.4502 18.8784 40.2949C20.1864 40.2949 21.4064 40.2949 22.6515 40.2949C22.6515 42.0596 22.6515 43.7734 22.6515 45.4873C22.6515 48.2295 24.1859 49.7656 26.9025 49.7656C27.9841 49.7656 29.0658 49.7656 30.1725 49.7656C30.16 51.0605 30.16 52.2793 30.16 53.5615ZM26.3617 23.0801C26.3617 16.6309 26.3617 10.2451 26.3617 3.85938C20.0606 3.85938 13.8099 3.85938 7.57166 3.85938C7.57166 10.2959 7.57166 16.6689 7.57166 23.0801C13.8476 23.0801 20.0858 23.0801 26.3617 23.0801ZM11.2945 42.1484C9.3576 42.1484 7.50878 42.123 5.64738 42.1611C4.57834 42.1738 3.77341 43.0244 3.78599 44.0654C3.79856 45.0811 4.57834 45.9189 5.60965 45.9443C7.4962 46.0078 9.39533 46.0205 11.2945 46.0586C11.2945 44.8652 11.2945 43.5449 11.2945 42.1484ZM11.2945 34.5312C9.39533 34.5312 7.55909 34.5186 5.72284 34.5312C4.60349 34.5439 3.77341 35.3691 3.77341 36.4355C3.77341 37.502 4.59091 38.3271 5.71027 38.3398C7.09374 38.3652 8.46463 38.3398 9.8481 38.3398C10.326 38.3398 10.7914 38.3398 11.2945 38.3398C11.2945 37.0449 11.2945 35.8262 11.2945 34.5312ZM7.55909 49.7656C6.93024 49.7656 6.30139 49.7529 5.67254 49.7656C4.59091 49.8037 3.78599 50.6162 3.78599 51.6572C3.78599 52.6982 4.57834 53.5361 5.65996 53.5615C6.91766 53.5869 8.17536 53.5869 9.43306 53.5615C10.5147 53.5361 11.3196 52.7109 11.3196 51.6699C11.3196 50.6289 10.5273 49.8037 9.44564 49.7656C8.81679 49.7529 8.18794 49.7656 7.55909 49.7656ZM8.43948 61.1914C8.79163 61.1914 9.15637 61.2041 9.50852 61.1914C10.5398 61.1279 11.3196 60.29 11.307 59.2744C11.2945 58.2842 10.5398 57.459 9.53368 57.3955C8.84194 57.3574 8.15021 57.3574 7.45847 57.3955C6.42716 57.4463 5.64738 58.2842 5.65996 59.2998C5.67254 60.3154 6.45231 61.1279 7.4962 61.1787C7.81063 61.2041 8.12505 61.1914 8.43948 61.1914Z" fill="#A6BBC7"/>
<path d="M15.055 19.7793C13.4325 18.1416 11.7724 16.4658 10.1248 14.8027C10.9549 13.9775 11.8101 13.1143 12.6905 12.2256C13.4074 12.9746 14.1872 13.7871 15.0172 14.6758C17.1679 12.4668 19.1928 10.3848 21.2051 8.32812C22.1484 9.28027 23.0036 10.1436 23.8086 10.9561C20.9033 13.876 17.9603 16.834 15.055 19.7793Z" fill="#A6BBC7"/>
</g>
<defs>
<clipPath id="clip0_1_23">
<rect width="49" height="65" fill="white" transform="translate(0.000305176)"/>
</clipPath>
</defs>
</svg>
