<svg width="132" height="39" viewBox="0 0 132 39" fill="none" xmlns="http://www.w3.org/2000/svg">
<path d="M40.5547 8.37109C40.4401 8.74349 40.2539 9.08724 39.9961 9.40234L39.2656 10.3047C39.0365 10.5911 38.8359 10.9062 38.6641 11.25C38.5208 11.5651 38.4779 11.9375 38.5352 12.3672C38.4779 12.3672 38.4062 12.3672 38.3203 12.3672C38.2344 12.3385 38.1628 12.3242 38.1055 12.3242C37.6471 12.3242 37.2891 12.4388 37.0312 12.668C36.8021 12.8685 36.487 13.0404 36.0859 13.1836C36.0286 13.0117 35.957 12.8542 35.8711 12.7109C35.7852 12.5391 35.6562 12.4245 35.4844 12.3672C34.7969 12.5104 34.1094 12.625 33.4219 12.7109C32.7344 12.7682 32.0469 12.8542 31.3594 12.9688C31.0443 13.026 30.7292 13.112 30.4141 13.2266C30.099 13.3125 29.7695 13.3984 29.4258 13.4844C29.2539 13.5417 29.0677 13.5703 28.8672 13.5703C28.6667 13.5417 28.4661 13.5417 28.2656 13.5703C27.5781 13.599 26.8333 13.6562 26.0312 13.7422C25.2292 13.7995 24.513 14.0143 23.8828 14.3867C23.5964 14.3294 23.2956 14.2865 22.9805 14.2578C22.6654 14.2292 22.3503 14.2148 22.0352 14.2148C21.3477 14.2148 20.5885 14.2865 19.7578 14.4297C18.9557 14.5443 18.2396 14.7878 17.6094 15.1602C17.4661 15.1029 17.3086 15.0599 17.1367 15.0312C16.9935 15.0026 16.8216 14.9883 16.6211 14.9883C16.5638 14.9883 16.5208 15.0026 16.4922 15.0312C16.4635 15.0312 16.4206 15.0312 16.3633 15.0312C16.3346 15.2891 16.3633 15.5469 16.4492 15.8047C16.5638 16.0339 16.75 16.2201 17.0078 16.3633C16.8932 16.6784 16.8359 17.0221 16.8359 17.3945C16.8359 17.8815 16.8646 18.3685 16.9219 18.8555C17.0078 19.3424 17.0508 19.8294 17.0508 20.3164C17.0508 20.8607 16.9792 21.2904 16.8359 21.6055C17.1224 22.4648 17.2656 23.3815 17.2656 24.3555C17.2656 24.6992 17.237 25.043 17.1797 25.3867C17.151 25.7018 17.1367 26.0456 17.1367 26.418C17.1367 26.7331 17.2513 26.9909 17.4805 27.1914C17.7096 27.3633 17.8242 27.6068 17.8242 27.9219C17.8242 28.0365 17.7956 28.151 17.7383 28.2656C18.1393 28.1797 18.526 28.0651 18.8984 27.9219C19.2708 27.75 19.6576 27.6641 20.0586 27.6641C20.2878 27.6641 20.5026 27.707 20.7031 27.793C20.9323 27.8789 21.1328 27.9935 21.3047 28.1367C21.276 28.2799 21.2474 28.4375 21.2188 28.6094C21.2188 28.7812 21.2188 28.9531 21.2188 29.125C21.2188 29.4401 21.2188 29.7409 21.2188 30.0273C21.2474 30.2852 21.276 30.5716 21.3047 30.8867C21.0755 31.2878 20.8034 31.6458 20.4883 31.9609C20.2018 32.276 20.0013 32.6771 19.8867 33.1641C19.457 33.1641 19.0703 33.2643 18.7266 33.4648C18.4115 33.6367 18.1107 33.8372 17.8242 34.0664C17.5378 34.2669 17.2513 34.4674 16.9648 34.668C16.6784 34.8398 16.3633 34.9258 16.0195 34.9258C15.5898 34.9258 15.2891 34.8685 15.1172 34.7539C14.9453 34.6107 14.8164 34.4674 14.7305 34.3242C14.6445 34.181 14.5586 34.0521 14.4727 33.9375C14.4154 33.8229 14.2721 33.7799 14.043 33.8086C13.9857 33.4362 13.8711 33.0924 13.6992 32.7773C13.5273 32.4336 13.3411 32.1042 13.1406 31.7891C12.9688 31.474 12.7826 31.1589 12.582 30.8438C12.4102 30.5 12.2812 30.1562 12.1953 29.8125C12.0234 29.0677 11.9518 28.2943 11.9805 27.4922C12.0091 26.6901 11.8802 25.9167 11.5938 25.1719C11.651 24.7708 11.694 24.3698 11.7227 23.9688C11.7513 23.5391 11.7656 23.1237 11.7656 22.7227C11.7656 21.9206 11.737 21.1328 11.6797 20.3594C11.651 19.5573 11.6224 18.7409 11.5938 17.9102C11.3932 17.6523 11.2643 17.3659 11.207 17.0508C11.1784 16.707 11.1497 16.3776 11.1211 16.0625C11.0352 15.9766 10.9349 15.8906 10.8203 15.8047C10.7344 15.7188 10.6771 15.6042 10.6484 15.4609C10.4193 15.4036 10.2474 15.375 10.1328 15.375C9.73177 15.375 9.38802 15.4753 9.10156 15.6758C8.84375 15.8477 8.60026 15.9336 8.37109 15.9336C8.14193 15.9336 7.92708 15.9049 7.72656 15.8477C7.52604 15.7904 7.32552 15.7617 7.125 15.7617C6.95312 15.7617 6.85286 15.8047 6.82422 15.8906C6.82422 15.9479 6.76693 16.0052 6.65234 16.0625C6.56641 16.1198 6.36589 16.1771 6.05078 16.2344C5.73568 16.2917 5.3776 16.349 4.97656 16.4062C4.60417 16.4349 4.23177 16.4635 3.85938 16.4922C3.51562 16.5208 3.28646 16.5352 3.17188 16.5352C2.71354 16.5352 2.36979 16.4492 2.14062 16.2773C1.88281 16.0768 1.58203 15.862 1.23828 15.6328C1.29557 15.4609 1.32422 15.3464 1.32422 15.2891C1.32422 15.0026 1.23828 14.7734 1.06641 14.6016C0.894531 14.401 0.808594 14.2292 0.808594 14.0859C0.808594 13.7708 0.9375 13.5273 1.19531 13.3555C1.42448 13.1836 1.55339 12.9115 1.58203 12.5391C2.24089 12.2526 2.91406 12.0378 3.60156 11.8945C4.28906 11.7513 4.99089 11.6367 5.70703 11.5508C6.42318 11.4648 7.125 11.3646 7.8125 11.25C8.52865 11.1354 9.23047 10.9492 9.91797 10.6914C10.1185 10.7201 10.3047 10.7487 10.4766 10.7773C10.6771 10.7773 10.8776 10.7773 11.0781 10.7773C11.9375 10.7773 12.7826 10.6914 13.6133 10.5195C14.4727 10.319 15.3464 10.2188 16.2344 10.2188C16.4635 10.2188 16.6927 10.2331 16.9219 10.2617C17.151 10.2904 17.3802 10.3333 17.6094 10.3906C18.7552 10.2188 19.8867 10.0326 21.0039 9.83203C22.1497 9.63151 23.3242 9.45964 24.5273 9.31641C25.1003 9.25911 25.6589 9.21615 26.2031 9.1875C26.776 9.13021 27.349 9.05859 27.9219 8.97266C28.1224 8.94401 28.2656 8.90104 28.3516 8.84375C28.4661 8.75781 28.5234 8.60026 28.5234 8.37109C28.7812 8.48568 29.0677 8.54297 29.3828 8.54297C29.8698 8.54297 30.3424 8.45703 30.8008 8.28516C31.2591 8.11328 31.7318 8.02734 32.2188 8.02734C32.3333 8.02734 32.4336 8.04167 32.5195 8.07031C32.6055 8.07031 32.6914 8.07031 32.7773 8.07031C32.9779 8.07031 33.0781 7.98438 33.0781 7.8125C33.1068 7.61198 33.25 7.48307 33.5078 7.42578C33.7083 7.36849 33.9948 7.32552 34.3672 7.29688C34.7396 7.26823 35.1263 7.23958 35.5273 7.21094C35.957 7.15365 36.3438 7.09635 36.6875 7.03906C37.0599 6.95312 37.332 6.83854 37.5039 6.69531L37.8047 6.22266C38.3203 6.2513 38.6927 6.48047 38.9219 6.91016C39.1797 7.3112 39.3229 7.75521 39.3516 8.24219C39.4661 8.35677 39.6237 8.41406 39.8242 8.41406C40.0534 8.38542 40.2539 8.37109 40.4258 8.37109H40.5547ZM70.6758 8.54297H70.5039C70.4466 8.51432 70.3893 8.51432 70.332 8.54297C70.2747 8.57161 70.2461 8.61458 70.2461 8.67188C70.3034 8.90104 70.332 9.05859 70.332 9.14453C70.332 9.48828 70.2174 9.78906 69.9883 10.0469C69.7878 10.276 69.6875 10.4766 69.6875 10.6484C69.6875 10.7344 69.7305 10.806 69.8164 10.8633C69.931 10.9206 70.0169 10.9635 70.0742 10.9922C69.931 11.1641 69.8021 11.3503 69.6875 11.5508C69.5729 11.7513 69.444 11.9232 69.3008 12.0664C69.3581 13.069 69.4727 14.0573 69.6445 15.0312C69.8451 15.9766 69.9453 16.9362 69.9453 17.9102C69.9453 18.3971 69.888 18.8841 69.7734 19.3711C69.6875 19.8294 69.5872 20.3021 69.4727 20.7891C69.3581 21.2474 69.2435 21.7201 69.1289 22.207C69.043 22.6654 69 23.138 69 23.625C68.6276 24.3698 68.2266 25.0859 67.7969 25.7734C67.3672 26.4323 67.0521 27.1628 66.8516 27.9648C66.1927 28.3659 65.6198 28.8672 65.1328 29.4688C64.6745 30.0417 64.2161 30.6146 63.7578 31.1875C62.7552 31.5312 61.8385 31.9896 61.0078 32.5625C60.8646 32.5911 60.7357 32.6055 60.6211 32.6055H60.2773C59.1888 32.6055 58.2578 32.4049 57.4844 32.0039C56.7109 31.6029 56.0378 31.0872 55.4648 30.457C54.9206 29.7982 54.4479 29.0534 54.0469 28.2227C53.6458 27.3919 53.2734 26.5326 52.9297 25.6445C52.2708 26.1315 51.6693 26.6901 51.125 27.3203C50.6094 27.9219 50.0794 28.5234 49.5352 29.125C49.3633 29.3542 49.1484 29.6263 48.8906 29.9414C48.6615 30.2279 48.4323 30.4427 48.2031 30.5859C48.0885 30.6432 47.9596 30.7005 47.8164 30.7578C47.7018 30.7865 47.5729 30.8294 47.4297 30.8867C46.6276 31.3451 45.9974 31.9609 45.5391 32.7344C44.9661 32.9635 44.4076 33.2214 43.8633 33.5078C43.3477 33.7943 42.8464 34.0951 42.3594 34.4102C41.8151 34.4388 41.2708 34.4818 40.7266 34.5391C40.2109 34.5677 39.6953 34.582 39.1797 34.582C38.3776 34.582 37.8047 34.5391 37.4609 34.4531C37.1458 34.3385 36.888 34.2096 36.6875 34.0664C36.5156 33.8945 36.3294 33.694 36.1289 33.4648C35.957 33.2357 35.6133 32.9922 35.0977 32.7344C34.9544 32.362 34.8112 31.9896 34.668 31.6172C34.5534 31.2448 34.3815 30.901 34.1523 30.5859V29.9844C34.1523 29.7266 34.138 29.4831 34.1094 29.2539C34.1094 29.0247 34.0664 28.8242 33.9805 28.6523C33.8945 28.4518 33.7513 28.3229 33.5508 28.2656C33.5508 27.2057 33.6797 26.1602 33.9375 25.1289C34.1953 24.0977 34.4102 23.0521 34.582 21.9922C34.7253 21.3906 34.8112 20.7747 34.8398 20.1445C34.8685 20.0013 34.8828 19.8438 34.8828 19.6719C34.8828 19.5 34.9115 19.3281 34.9688 19.1562C35.026 18.9844 35.1263 18.8411 35.2695 18.7266C35.4128 18.612 35.513 18.4401 35.5703 18.2109C35.7135 17.8099 35.7995 17.3659 35.8281 16.8789C35.8568 16.3919 35.8997 15.9336 35.957 15.5039C36.1003 14.6445 36.2578 13.7852 36.4297 12.9258C36.6302 12.0664 36.8594 11.2214 37.1172 10.3906C37.0885 10.2474 37.0742 10.1185 37.0742 10.0039V9.57422C37.0742 8.48568 37.1458 7.42578 37.2891 6.39453C37.4609 5.36328 37.5469 4.30339 37.5469 3.21484C37.5469 2.69922 37.5039 2.15495 37.418 1.58203C37.5612 1.29557 37.7188 1.03776 37.8906 0.808594C38.0911 0.550781 38.349 0.35026 38.6641 0.207031C39.2656 0.522135 39.8529 0.865885 40.4258 1.23828C41.0273 1.58203 41.6003 1.96875 42.1445 2.39844V3.42969C42.1445 4.26042 42.1159 5.14844 42.0586 6.09375C42.0299 7.01042 41.944 7.94141 41.8008 8.88672C41.6862 9.83203 41.5286 10.7487 41.3281 11.6367C41.1276 12.5247 40.8555 13.3411 40.5117 14.0859V15.4609C39.9961 16.3776 39.6523 17.3372 39.4805 18.3398C39.3086 19.3424 39.1081 20.3451 38.8789 21.3477C38.8216 21.6628 38.707 22.0352 38.5352 22.4648C38.3633 22.8945 38.2773 23.2669 38.2773 23.582C38.2773 23.7253 38.2917 23.8685 38.3203 24.0117C38.3776 24.1549 38.4206 24.2982 38.4492 24.4414C38.2201 24.957 38.0911 25.5156 38.0625 26.1172C38.0625 26.6901 37.9909 27.263 37.8477 27.8359C38.0768 28.2083 38.2773 28.6094 38.4492 29.0391C38.6497 29.4401 38.8646 29.8555 39.0938 30.2852L39.5234 30.2422C39.7812 30.2422 40.0534 30.2708 40.3398 30.3281C40.6263 30.3568 40.8984 30.3711 41.1562 30.3711C41.2995 30.3711 41.4427 30.3711 41.5859 30.3711C41.7292 30.3424 41.8724 30.3138 42.0156 30.2852C42.1875 29.9701 42.4167 29.7266 42.7031 29.5547C42.9896 29.3542 43.276 29.1823 43.5625 29.0391C43.8776 28.8958 44.1641 28.7383 44.4219 28.5664C44.7083 28.3945 44.9375 28.151 45.1094 27.8359H45.7109C45.7682 27.75 45.8685 27.6354 46.0117 27.4922C46.1836 27.349 46.3411 27.2057 46.4844 27.0625C46.6276 26.9193 46.7422 26.776 46.8281 26.6328C46.9427 26.4896 46.9857 26.375 46.957 26.2891C47.3008 26.1458 47.5872 25.9596 47.8164 25.7305C48.0742 25.4727 48.3177 25.2148 48.5469 24.957C48.776 24.6706 49.0052 24.3984 49.2344 24.1406C49.4635 23.8828 49.7357 23.668 50.0508 23.4961C50.0221 23.4388 50.0078 23.3672 50.0078 23.2812C50.0078 23.0234 50.0794 22.8229 50.2227 22.6797C50.3945 22.5365 50.4375 22.2786 50.3516 21.9062L50.4805 21.9492C50.6237 21.9492 50.724 21.9062 50.7812 21.8203C50.8385 21.7344 50.8815 21.6341 50.9102 21.5195C50.9674 21.4049 51.0247 21.3047 51.082 21.2188C51.168 21.1042 51.2826 21.0326 51.4258 21.0039V20.918C51.4258 20.4023 51.526 19.9154 51.7266 19.457C51.9557 18.9987 52.0703 18.5117 52.0703 17.9961C52.0703 17.8529 52.056 17.724 52.0273 17.6094C51.9987 17.4661 51.9557 17.3229 51.8984 17.1797C52.1562 16.8932 52.3138 16.5638 52.3711 16.1914C52.457 15.819 52.5 15.4323 52.5 15.0312C52.5286 14.6302 52.5573 14.2292 52.5859 13.8281C52.6146 13.4271 52.7292 13.0404 52.9297 12.668C52.9297 12.3815 52.8294 12.181 52.6289 12.0664L53.1445 11.3789C53.3164 11.1497 53.5169 10.9635 53.7461 10.8203H53.832C54.1471 10.8203 54.4193 10.9062 54.6484 11.0781C54.9062 11.2214 55.1354 11.3932 55.3359 11.5938C55.5651 11.7656 55.7943 11.9518 56.0234 12.1523C56.2526 12.3242 56.5104 12.4531 56.7969 12.5391V13.4844C57.0833 13.599 57.2982 13.7995 57.4414 14.0859C57.4128 14.8594 57.3841 15.6328 57.3555 16.4062C57.3555 17.1797 57.3555 17.9388 57.3555 18.6836C57.3555 19.8294 57.3841 20.9753 57.4414 22.1211C57.4987 23.2383 57.6419 24.3555 57.8711 25.4727C58.1862 25.7878 58.5013 26.1029 58.8164 26.418C59.1602 26.7331 59.418 27.0911 59.5898 27.4922H60.1055C61.1081 27.4922 61.8815 27.1771 62.4258 26.5469C62.9701 25.888 63.3568 25.1289 63.5859 24.2695C64.0156 24.069 64.3307 23.7969 64.5312 23.4531C64.7604 23.0807 64.9323 22.6797 65.0469 22.25C65.1901 21.8203 65.3047 21.3906 65.3906 20.9609C65.5052 20.5026 65.6771 20.1016 65.9062 19.7578C65.9349 19.4141 65.9492 19.0703 65.9492 18.7266V17.6523C65.9492 15.9909 65.8633 14.3438 65.6914 12.7109C65.5482 11.0495 65.4622 9.40234 65.4336 7.76953C65.319 7.54036 65.2331 7.26823 65.1758 6.95312L65.0469 6.00781C65.0182 5.69271 64.9466 5.40625 64.832 5.14844C64.7461 4.86198 64.6029 4.66146 64.4023 4.54688C64.4883 4.26042 64.5312 3.91667 64.5312 3.51562C64.5312 3.14323 64.4883 2.77083 64.4023 2.39844C64.3451 2.02604 64.2734 1.65365 64.1875 1.28125C64.4167 1.08073 64.6029 0.880208 64.7461 0.679688C64.8893 0.479167 65.1328 0.378906 65.4766 0.378906C65.6771 0.378906 65.849 0.436198 65.9922 0.550781C66.1641 0.665365 66.3216 0.794271 66.4648 0.9375C66.6081 1.08073 66.7513 1.20964 66.8945 1.32422C67.0664 1.4388 67.2669 1.49609 67.4961 1.49609C67.5534 1.49609 67.6107 1.49609 67.668 1.49609C67.7539 1.46745 67.8398 1.45312 67.9258 1.45312C68.2122 1.73958 68.4414 2.09766 68.6133 2.52734C68.8138 2.95703 68.9857 3.41536 69.1289 3.90234C69.3008 4.36068 69.4727 4.81901 69.6445 5.27734C69.8451 5.73568 70.0885 6.15104 70.375 6.52344C70.375 6.60938 70.3607 6.69531 70.332 6.78125C70.332 6.83854 70.332 6.91016 70.332 6.99609C70.332 7.25391 70.375 7.51172 70.4609 7.76953C70.5469 8.02734 70.6185 8.28516 70.6758 8.54297ZM82.707 30.1133C82.5638 30.3424 82.3919 30.5573 82.1914 30.7578C81.9909 30.9297 81.8047 31.1159 81.6328 31.3164C81.4323 31.4023 81.2031 31.4453 80.9453 31.4453C80.7161 31.4453 80.487 31.4453 80.2578 31.4453C80.0573 31.4167 79.8568 31.4167 79.6562 31.4453C79.4844 31.4453 79.3411 31.5026 79.2266 31.6172C78.9974 31.5599 78.8255 31.4596 78.7109 31.3164C78.5964 31.1445 78.3958 31.0443 78.1094 31.0156C77.9948 30.987 77.8802 30.987 77.7656 31.0156C77.3359 30.5286 76.9349 30.013 76.5625 29.4688C76.2188 28.9245 75.8893 28.4089 75.5742 27.9219C75.5456 26.862 75.4596 25.7878 75.3164 24.6992C75.2878 24.4414 75.2448 24.1836 75.1875 23.9258C75.1302 23.668 75.0872 23.4245 75.0586 23.1953C75.0586 22.9089 75.0729 22.6367 75.1016 22.3789C75.1589 22.0924 75.2018 21.8346 75.2305 21.6055C75.3451 20.7747 75.474 19.9583 75.6172 19.1562C75.7604 18.3542 75.8893 17.5378 76.0039 16.707C76.1185 15.9622 76.1758 15.1888 76.1758 14.3867C76.1758 13.556 76.0469 12.7826 75.7891 12.0664L75.7461 11.8516C75.8034 11.6224 75.8607 11.4362 75.918 11.293C76.0039 11.1211 76.0612 10.9349 76.0898 10.7344C76.1471 10.4193 76.0755 10.1901 75.875 10.0469C75.9609 9.81771 76.1042 9.67448 76.3047 9.61719C76.5052 9.53125 76.6198 9.35938 76.6484 9.10156C76.6771 8.98698 76.6771 8.8724 76.6484 8.75781C76.8776 8.67188 77.1068 8.60026 77.3359 8.54297C77.5938 8.45703 77.8372 8.44271 78.0664 8.5C78.4388 8.55729 78.7682 8.6862 79.0547 8.88672C79.3411 9.05859 79.6133 9.25911 79.8711 9.48828C80.3294 10.8633 80.5156 12.3242 80.4297 13.8711C80.3438 15.3893 80.2005 16.9219 80 18.4688C79.7995 20.0156 79.6706 21.5339 79.6133 23.0234C79.556 24.4844 79.7852 25.8451 80.3008 27.1055L80.3867 27.1484C80.5299 27.1771 80.6445 27.1341 80.7305 27.0195C80.8164 26.8763 80.931 26.819 81.0742 26.8477C81.1888 26.9049 81.2604 26.9336 81.2891 26.9336C81.4036 27.5065 81.5898 28.0508 81.8477 28.5664C82.1055 29.082 82.3919 29.5977 82.707 30.1133ZM131.562 12.2383C131.477 12.4961 131.305 12.6823 131.047 12.7969C130.818 12.8828 130.574 12.9544 130.316 13.0117C130.059 13.069 129.815 13.1693 129.586 13.3125C129.385 13.4271 129.257 13.6276 129.199 13.9141L129.113 13.957C128.999 13.957 128.913 13.9284 128.855 13.8711C128.827 13.7852 128.798 13.7135 128.77 13.6562C128.741 13.5703 128.698 13.4987 128.641 13.4414C128.612 13.3555 128.555 13.3125 128.469 13.3125C128.154 13.3125 127.839 13.3411 127.523 13.3984C127.237 13.4557 126.951 13.4844 126.664 13.4844C126.234 13.4844 125.848 13.4271 125.504 13.3125C125.303 13.3698 125.189 13.4987 125.16 13.6992C125.16 13.8997 125.074 14.0286 124.902 14.0859C124.759 14.1432 124.587 14.1719 124.387 14.1719C124.186 14.1432 123.986 14.1576 123.785 14.2148L122.41 14.5586C121.952 14.6732 121.493 14.7305 121.035 14.7305C120.777 14.7305 120.591 14.7161 120.477 14.6875C120.047 15.0312 119.56 15.2891 119.016 15.4609C118.471 15.6042 117.898 15.7474 117.297 15.8906C116.724 16.0052 116.151 16.1628 115.578 16.3633C115.034 16.5638 114.547 16.8789 114.117 17.3086C113.888 17.2513 113.688 17.2227 113.516 17.2227C113.143 17.2227 112.814 17.3086 112.527 17.4805C112.241 17.6237 111.94 17.7669 111.625 17.9102C111.482 17.9674 111.339 17.9961 111.195 17.9961C111.052 17.9961 110.895 18.0247 110.723 18.082C110.551 18.1393 110.436 18.2396 110.379 18.3828C110.35 18.4974 110.264 18.612 110.121 18.7266C110.121 19.7578 110.221 20.7891 110.422 21.8203C110.622 22.8229 110.723 23.8398 110.723 24.8711V25.043C110.78 25.5299 110.938 25.9883 111.195 26.418C111.453 26.819 111.582 27.2344 111.582 27.6641C111.582 27.8073 111.553 27.9648 111.496 28.1367C112.241 28.3086 112.728 28.6953 112.957 29.2969C113.215 29.8698 113.415 30.5 113.559 31.1875C113.73 31.8464 113.945 32.4622 114.203 33.0352C114.49 33.6081 115.034 33.9661 115.836 34.1094C115.893 34.3958 115.936 34.6966 115.965 35.0117C115.993 35.2982 116.008 35.5846 116.008 35.8711C116.008 36.2721 115.965 36.6589 115.879 37.0312C115.793 37.4323 115.621 37.7904 115.363 38.1055C114.934 38.1341 114.618 38.1484 114.418 38.1484C114.217 38.1484 113.917 38.2344 113.516 38.4062C112.943 38.0625 112.427 37.6615 111.969 37.2031C111.539 36.7734 111.124 36.3151 110.723 35.8281C110.35 35.3125 109.978 34.7969 109.605 34.2812C109.233 33.737 108.832 33.2214 108.402 32.7344C106.913 33.1068 105.38 33.3646 103.805 33.5078C102.258 33.6224 100.711 33.6797 99.1641 33.6797C99.1068 33.737 99.0208 33.7656 98.9062 33.7656C98.7917 33.7656 98.6771 33.7799 98.5625 33.8086C98.4766 33.8086 98.3906 33.8372 98.3047 33.8945C98.2474 33.9232 98.2331 33.9948 98.2617 34.1094C98.0612 33.9948 97.832 33.9232 97.5742 33.8945C97.3451 33.8372 97.1302 33.8086 96.9297 33.8086C96.7865 33.8086 96.6432 33.8229 96.5 33.8516C96.3568 33.8516 96.2135 33.8945 96.0703 33.9805C94.9818 33.7799 93.9219 33.5078 92.8906 33.1641C91.888 32.7917 90.8568 32.4909 89.7969 32.2617C89.7969 32.0326 89.7396 31.875 89.625 31.7891C89.5104 31.6745 89.4102 31.5169 89.3242 31.3164C88.1211 30.5716 87.1042 29.6693 86.2734 28.6094C85.4714 27.5495 85.1419 26.2604 85.2852 24.7422L84.9844 24.1406C84.9844 23.6823 85.0846 23.3529 85.2852 23.1523C85.1706 22.9518 84.9701 22.7513 84.6836 22.5508C84.9414 22.1497 85.1706 21.7344 85.3711 21.3047C85.5716 20.875 85.7148 20.4167 85.8008 19.9297C85.8294 19.7865 85.8438 19.6576 85.8438 19.543C85.8438 19.4284 85.8724 19.2995 85.9297 19.1562C85.987 18.9844 86.0729 18.7982 86.1875 18.5977C86.2734 18.3685 86.3594 18.168 86.4453 17.9961C86.9036 17.0221 87.4049 16.0911 87.9492 15.2031C88.5221 14.2865 89.2383 13.4987 90.0977 12.8398C90.1549 12.3529 90.2982 11.9518 90.5273 11.6367C90.7565 11.293 91 10.9922 91.2578 10.7344C91.5443 10.4479 91.8164 10.1615 92.0742 9.875C92.3607 9.58854 92.5755 9.24479 92.7188 8.84375C93.2917 8.35677 93.8646 7.88411 94.4375 7.42578C95.0391 6.96745 95.5404 6.42318 95.9414 5.79297C96.457 5.62109 96.944 5.40625 97.4023 5.14844C97.8607 4.86198 98.2474 4.50391 98.5625 4.07422C99.25 4.01693 99.9232 3.88802 100.582 3.6875C101.27 3.48698 101.986 3.38672 102.73 3.38672C103.046 3.38672 103.418 3.45833 103.848 3.60156C104.306 3.71615 104.65 3.93099 104.879 4.24609C104.908 4.30339 104.922 4.375 104.922 4.46094L104.965 4.67578C104.993 4.73307 105.022 4.79036 105.051 4.84766C105.108 4.8763 105.194 4.8763 105.309 4.84766C105.309 5.47786 105.237 6.1224 105.094 6.78125C104.951 7.41146 104.578 7.89844 103.977 8.24219C103.604 8.1276 103.203 8.07031 102.773 8.07031C102.201 8.07031 101.671 8.1849 101.184 8.41406C100.725 8.61458 100.267 8.85807 99.8086 9.14453C99.3789 9.40234 98.9349 9.67448 98.4766 9.96094C98.0182 10.2188 97.5312 10.4049 97.0156 10.5195C96.9583 10.7487 96.901 10.9635 96.8438 11.1641C96.8151 11.3359 96.8294 11.5365 96.8867 11.7656C96.7435 11.7656 96.6289 11.7513 96.543 11.7227C96.4857 11.6654 96.3854 11.6367 96.2422 11.6367C96.0417 11.6367 95.8984 11.7513 95.8125 11.9805C95.7552 12.2096 95.6979 12.3958 95.6406 12.5391C95.0964 12.7682 94.638 13.0977 94.2656 13.5273C93.9219 13.9284 93.5924 14.3724 93.2773 14.8594C92.9909 15.3177 92.6758 15.7617 92.332 16.1914C91.9883 16.6211 91.5586 16.9505 91.043 17.1797C90.8138 18.0964 90.5846 18.9987 90.3555 19.8867C90.1549 20.7747 89.9115 21.6628 89.625 22.5508C89.7109 22.8945 89.7539 23.2526 89.7539 23.625C89.7539 24.0833 89.7109 24.4987 89.625 24.8711C89.7682 25.1003 89.9115 25.3724 90.0547 25.6875L90.5703 26.6758C90.7422 27.0195 90.9141 27.3346 91.0859 27.6211C91.2865 27.9076 91.4727 28.1224 91.6445 28.2656C91.9596 28.4948 92.4466 28.7096 93.1055 28.9102C93.7643 29.082 94.3516 29.3828 94.8672 29.8125C94.9245 29.8125 94.9961 29.8125 95.082 29.8125C95.168 29.7839 95.2396 29.7695 95.2969 29.7695C95.6406 29.7695 96.013 29.8555 96.4141 30.0273C96.8151 30.1992 97.0729 30.2852 97.1875 30.2852C98.7917 30.2852 100.539 30.1849 102.43 29.9844C104.32 29.7552 106.068 29.4831 107.672 29.168C107.729 28.8815 107.758 28.638 107.758 28.4375C107.758 28.0651 107.701 27.707 107.586 27.3633C107.471 26.9909 107.285 26.6758 107.027 26.418C107.027 25.9883 107.027 25.5586 107.027 25.1289C107.056 24.6992 107.07 24.2695 107.07 23.8398C107.07 23.1237 107.042 22.3646 106.984 21.5625C106.927 20.7604 106.784 20.0156 106.555 19.3281H106.469C106.096 19.3281 105.753 19.4284 105.438 19.6289C105.151 19.8008 104.85 19.8867 104.535 19.8867C104.363 19.8867 104.22 19.8438 104.105 19.7578C103.762 20.1589 103.346 20.4596 102.859 20.6602C102.372 20.8607 101.857 21.0469 101.312 21.2188C100.768 21.362 100.224 21.5195 99.6797 21.6914C99.1641 21.8633 98.6914 22.1068 98.2617 22.4219C98.0326 22.3359 97.8177 22.293 97.6172 22.293C97.4167 22.293 97.2161 22.3073 97.0156 22.3359C96.8438 22.3646 96.6432 22.3932 96.4141 22.4219C95.8125 21.9062 95.5117 21.2617 95.5117 20.4883C95.5117 20.0872 95.569 19.7005 95.6836 19.3281C95.8268 18.9271 96.013 18.5547 96.2422 18.2109C96.3854 18.125 96.5573 18.082 96.7578 18.082C96.9583 18.0534 97.1589 18.0247 97.3594 17.9961C97.5599 17.9388 97.7174 17.8672 97.832 17.7812C97.9753 17.6953 98.0612 17.5378 98.0898 17.3086C98.1758 17.3945 98.2474 17.4375 98.3047 17.4375C98.362 17.4375 98.4193 17.4232 98.4766 17.3945C98.5339 17.3659 98.5911 17.3516 98.6484 17.3516C98.7057 17.3516 98.7487 17.3802 98.7773 17.4375C98.8346 17.4948 98.8633 17.5521 98.8633 17.6094C100.095 16.9505 101.355 16.3919 102.645 15.9336C103.934 15.4753 105.237 15.0599 106.555 14.6875C107.901 14.3151 109.247 13.9714 110.594 13.6562C111.94 13.3125 113.272 12.9401 114.59 12.5391C114.79 12.3672 115.005 12.2383 115.234 12.1523C115.464 12.0664 115.664 11.9375 115.836 11.7656C116.036 11.8802 116.28 11.9375 116.566 11.9375C116.967 11.9375 117.397 11.8659 117.855 11.7227C118.342 11.5508 118.743 11.3503 119.059 11.1211C119.173 11.1497 119.273 11.1641 119.359 11.1641H119.66C120.233 11.1641 120.763 11.0781 121.25 10.9062C121.766 10.7344 122.267 10.5052 122.754 10.2188H122.969C123.857 10.2188 124.73 10.1185 125.59 9.91797C126.478 9.71745 127.38 9.61719 128.297 9.61719C129.471 9.61719 130.503 9.91797 131.391 10.5195V11.0352C131.391 11.2643 131.391 11.4792 131.391 11.6797C131.419 11.8516 131.477 12.0378 131.562 12.2383Z" fill="#F0313F"/>
</svg>
